<svg width="16" height="16" viewBox="0 0 16 16" fill="none" xmlns="http://www.w3.org/2000/svg">
<g opacity="0.6">
<path fill-rule="evenodd" clip-rule="evenodd" d="M3.19995 2.66667C3.19995 2.37212 3.43874 2.13333 3.73328 2.13333H12.2666C12.5611 2.13333 12.8 2.37212 12.8 2.66667V14.4C12.8 14.5939 12.6948 14.7725 12.5252 14.8665C12.3556 14.9604 12.1483 14.955 11.984 14.8523L7.99995 12.3622L4.01595 14.8523C3.85155 14.955 3.64431 14.9604 3.47475 14.8665C3.30517 14.7725 3.19995 14.5939 3.19995 14.4V2.66667ZM4.26662 3.2V13.4378L7.43462 11.4577C7.78051 11.2416 8.2194 11.2416 8.56528 11.4577L11.7333 13.4378V3.2H4.26662Z" fill="black"/>
</g>
</svg>
