<svg width="16" height="16" viewBox="0 0 16 16" fill="none" xmlns="http://www.w3.org/2000/svg">
<g opacity="0.6">
<path fill-rule="evenodd" clip-rule="evenodd" d="M8.00014 0.935482C4.09862 0.935482 0.935791 4.0983 0.935791 7.99983C0.935791 11.9013 4.09861 15.0642 8.00014 15.0642C11.9017 15.0642 15.0645 11.9013 15.0645 7.99983C15.0645 4.0983 11.9016 0.935482 8.00014 0.935482ZM1.94913 7.99983C1.94913 4.65795 4.65827 1.94881 8.00014 1.94881C11.342 1.94881 14.0511 4.65795 14.0511 7.99983C14.0511 11.3417 11.342 14.0509 8.00014 14.0509C4.65827 14.0509 1.94913 11.3417 1.94913 7.99983ZM8.53338 4.80001C8.53338 4.50546 8.2946 4.26668 8.00005 4.26668C7.7055 4.26668 7.46672 4.50546 7.46672 4.80001V8.00001C7.46672 8.14146 7.52291 8.27712 7.62293 8.37714L9.75626 10.5105C9.96454 10.7187 10.3022 10.7187 10.5105 10.5105C10.7188 10.3022 10.7188 9.9645 10.5105 9.75622L8.53338 7.7791V4.80001Z" fill="black"/>
</g>
</svg>
