<svg width="16" height="16" viewBox="0 0 16 16" fill="none" xmlns="http://www.w3.org/2000/svg">
<g opacity="0.6">
<path fill-rule="evenodd" clip-rule="evenodd" d="M8.27126 1.94084C8.1039 1.84194 7.89599 1.84194 7.72862 1.94084L1.86195 5.40751C1.69957 5.50346 1.59994 5.67805 1.59994 5.86667C1.59994 6.05528 1.69957 6.22988 1.86195 6.32582L7.72862 9.79249C7.89599 9.89139 8.1039 9.89139 8.27126 9.79249L14.1379 6.32582C14.3004 6.22988 14.4 6.05528 14.4 5.86667C14.4 5.67805 14.3004 5.50346 14.1379 5.40751L8.27126 1.94084ZM7.99994 8.71385L3.18164 5.86667L7.99994 3.01949L12.8182 5.86667L7.99994 8.71385ZM2.40459 8.87418C2.15101 8.72433 1.82397 8.80843 1.67411 9.06202C1.52426 9.31559 1.60836 9.64264 1.86195 9.79249L7.72862 13.2592C7.89599 13.3581 8.1039 13.3581 8.27126 13.2592L14.1379 9.79249C14.3916 9.64264 14.4756 9.31559 14.3257 9.06202C14.1759 8.80843 13.8488 8.72433 13.5953 8.87418L7.99994 12.1805L2.40459 8.87418Z" fill="black"/>
</g>
</svg>
